# xmcd
#
# Track frame offsets: 
#        210
#        19622
#        41085
#        62225
#        74687
#        89967
#        103767
#        116887
#        135402
#        151952
#        176217
#
# Disc length: 2576 seconds
#
# Revision: 3
# Processed by: cddbd v1.5.2PL0 Copyright (c) Steve Scherf et al.
# Submitted via: ExactAudioCopy v1.0b1
#
DISCID=a50a0e0b
DTITLE=Ronnie Earle - Soul Searching
DYEAR=1988
DGENRE=Blues
TTITLE0=Backstroke
TTITLE1=Ships Passing In The Night
TTITLE2=You're The One
TTITLE3=Soul Searchin'
TTITLE4=It's My Soul
TTITLE5=Evening Sun
TTITLE6=Jerry Jumps In
TTITLE7=After All
TTITLE8=I Don't Believe
TTITLE9=Blues For Bone
TTITLE10=Sufferin'
EXTD=
EXTT0=
EXTT1=
EXTT2=
EXTT3=
EXTT4=
EXTT5=
EXTT6=
EXTT7=
EXTT8=
EXTT9=
EXTT10=
PLAYORDER=
